<svg aria-hidden="true" style="position: absolute; width: 0; height: 0; overflow: hidden;" version="1.1" xmlns="http://www.w3.org/2000/svg" xmlns:xlink="http://www.w3.org/1999/xlink">
<defs>
<symbol id="icon-twitter" viewBox="0 0 39 32">
<path d="M39.273 3.801c-1.444 0.625-3.016 1.075-4.635 1.25 1.681-1.002 2.939-2.584 3.54-4.45-1.577 0.941-3.305 1.601-5.107 1.95-0.753-0.807-1.664-1.451-2.675-1.89s-2.103-0.664-3.205-0.662c-4.46 0-8.047 3.626-8.047 8.076 0 0.625 0.076 1.25 0.198 1.851-6.678-0.35-12.635-3.55-16.595-8.45-0.722 1.236-1.1 2.643-1.095 4.076 0 2.802 1.421 5.273 3.587 6.727-1.277-0.050-2.523-0.402-3.639-1.027v0.099c0 3.924 2.766 7.176 6.452 7.924-0.692 0.18-1.404 0.273-2.119 0.274-0.524 0-1.019-0.052-1.52-0.123 1.019 3.2 3.988 5.524 7.523 5.6-2.766 2.173-6.23 3.451-9.992 3.451-0.675 0-1.298-0.024-1.945-0.099 3.568 2.296 7.802 3.621 12.361 3.621 14.801 0 22.9-12.298 22.9-22.973 0-0.35 0-0.701-0.024-1.051 1.567-1.15 2.94-2.575 4.035-4.175z"></path>
</symbol>
<symbol id="icon-fb" viewBox="0 0 32 32">
<path d="M30.72 0h-29.44c-0.708 0-1.28 0.572-1.28 1.28v29.44c0 0.708 0.572 1.28 1.28 1.28h29.44c0.708 0 1.28-0.572 1.28-1.28v-29.44c0-0.708-0.572-1.28-1.28-1.28zM27.024 9.34h-2.556c-2.004 0-2.392 0.952-2.392 2.352v3.084h4.784l-0.624 4.828h-4.16v12.396h-4.988v-12.392h-4.172v-4.832h4.172v-3.56c0-4.132 2.524-6.384 6.212-6.384 1.768 0 3.284 0.132 3.728 0.192v4.316h-0.004z"></path>
</symbol>
<symbol id="icon-insta" viewBox="0 0 32 32">
<path d="M30.72 0h-29.44c-0.708 0-1.28 0.572-1.28 1.28v29.44c0 0.708 0.572 1.28 1.28 1.28h29.44c0.708 0 1.28-0.572 1.28-1.28v-29.44c0-0.708-0.572-1.28-1.28-1.28zM9.492 27.268h-4.748v-15.272h4.748v15.272zM7.12 9.908c-0.544 0-1.076-0.161-1.529-0.464s-0.805-0.732-1.014-1.235c-0.208-0.503-0.263-1.056-0.157-1.59s0.368-1.024 0.753-1.409c0.385-0.385 0.875-0.647 1.409-0.753s1.087-0.052 1.59 0.157c0.503 0.208 0.933 0.561 1.235 1.014s0.464 0.985 0.464 1.529c-0.004 1.52-1.236 2.752-2.752 2.752zM27.268 27.268h-4.744v-7.428c0-1.772-0.032-4.048-2.468-4.048-2.468 0-2.848 1.928-2.848 3.92v7.556h-4.74v-15.272h4.552v2.088h0.064c0.632-1.2 2.18-2.468 4.492-2.468 4.808 0 5.692 3.164 5.692 7.276v8.376z"></path>
</symbol>
<symbol id="icon-phone" viewBox="0 0 32 32">
<path d="M21.675 0h-11.35c-2.355 0-4.256 1.949-4.256 4.364v23.273c0 2.414 1.901 4.364 4.256 4.364h11.35c2.355 0 4.256-1.949 4.256-4.364v-23.273c0-2.415-1.901-4.364-4.256-4.364zM18.837 29.091h-5.675v-1.454h5.675v1.454zM23.448 24.727h-14.897v-20.364h14.897v20.364z"></path>
</symbol>
<symbol id="icon-map" viewBox="0 0 32 32">
<path d="M16 19.613c3.416 0 6.194-2.546 6.194-5.677s-2.778-5.677-6.194-5.677-6.194 2.546-6.194 5.677c0 3.131 2.778 5.677 6.194 5.677zM16 11.097c1.708 0 3.097 1.273 3.097 2.839s-1.389 2.839-3.097 2.839c-1.708 0-3.097-1.273-3.097-2.839s1.389-2.839 3.097-2.839z"></path>
<path d="M15.177 30.699c0.24 0.175 0.528 0.269 0.823 0.269s0.583-0.094 0.823-0.269c0.431-0.311 10.573-7.766 10.531-17.073 0-6.375-5.094-11.561-11.355-11.561s-11.355 5.187-11.355 11.554c-0.041 9.314 10.1 16.77 10.531 17.080zM16 4.955c4.697 0 8.516 3.889 8.516 8.678 0.030 6.414-6.228 12.173-8.516 14.062-2.287-1.89-8.546-7.651-8.516-14.069 0-4.782 3.819-8.671 8.516-8.671z"></path>
</symbol>
<symbol id="icon-circle-ribbon" viewBox="0 0 32 32">
<path d="M31.738 15.952c0-8.718-7.068-15.786-15.786-15.786s-15.786 7.068-15.786 15.786c0 8.719 7.068 15.786 15.786 15.786s15.786-7.068 15.786-15.786zM26.969 15.962c0 6.079-4.928 11.007-11.007 11.007s-11.007-4.928-11.007-11.007c0-6.079 4.928-11.007 11.007-11.007s11.007 4.928 11.007 11.007z"></path>
<path d="M19.593 3.314l-0.394 0.221-0.145 0.487-0.354-0.105 0.565-1.904 0.354 0.105-0.29 0.977 1.231-0.697 0.397 0.118-1.053 0.614 0.537 1.305-0.414-0.123-0.435-0.997z"></path>
<path d="M17.595 3.172l0.335 0.625 0.395 0.046-0.378-0.702c0.142-0.038 0.255-0.104 0.341-0.203 0.083-0.099 0.135-0.221 0.152-0.371 0.017-0.144-0.002-0.275-0.058-0.387s-0.142-0.205-0.262-0.276c-0.12-0.071-0.266-0.117-0.438-0.137l-0.812-0.095-0.232 1.973 0.366 0.043 0.068-0.575 0.445 0.052c0.034 0.004 0.059 0.007 0.076 0.006zM17.981 2.22c0.074 0.077 0.105 0.178 0.090 0.305s-0.068 0.218-0.158 0.276c-0.090 0.061-0.215 0.080-0.376 0.062l-0.428-0.050 0.092-0.786 0.428 0.050c0.161 0.019 0.278 0.067 0.352 0.144z"></path>
<path d="M15.177 3.719c-0.201 0.014-0.388-0.015-0.556-0.094-0.168-0.076-0.304-0.189-0.408-0.338s-0.162-0.319-0.176-0.511c-0.014-0.192 0.019-0.371 0.102-0.534s0.201-0.29 0.356-0.392c0.155-0.099 0.336-0.155 0.537-0.169s0.388 0.015 0.556 0.092c0.168 0.079 0.304 0.189 0.408 0.338s0.162 0.319 0.176 0.514c0.014 0.195-0.019 0.371-0.102 0.534s-0.201 0.29-0.357 0.389c-0.155 0.102-0.336 0.158-0.537 0.172zM15.154 3.397c0.133-0.009 0.25-0.049 0.35-0.116s0.18-0.155 0.231-0.267c0.052-0.109 0.075-0.23 0.065-0.363s-0.049-0.25-0.116-0.353c-0.067-0.101-0.158-0.179-0.267-0.231s-0.23-0.072-0.363-0.063c-0.133 0.009-0.25 0.046-0.35 0.113s-0.179 0.158-0.231 0.267c-0.052 0.112-0.075 0.233-0.065 0.366s0.049 0.25 0.116 0.35c0.067 0.103 0.158 0.179 0.267 0.231s0.23 0.075 0.363 0.065z"></path>
<path d="M13.322 3.933l0.051-2.092-0.337 0.102-0.044 1.6-0.923-1.306-0.326 0.099-0.052 1.594-0.912-1.3-0.367 0.112 1.208 1.709 0.377-0.115 0.050-1.552 0.898 1.263 0.375-0.114z"></path>
<path d="M9.949 4.901l0.165 0.262-1.261 0.794-1.059-1.681 1.227-0.773 0.165 0.262-0.915 0.576 0.275 0.437 0.812-0.511 0.162 0.257-0.812 0.511 0.292 0.463 0.949-0.597z"></path>
<path d="M6.254 5.949l0.498-0.43 1.094 1.267 0.279-0.241-1.094-1.267 0.498-0.43-0.204-0.236-1.276 1.101 0.204 0.236z"></path>
<path d="M6.675 7.279l-0.649 0.752 0.22 0.449-0.248 0.288-0.92-1.974 0.237-0.275 2.090 0.619-0.252 0.292-0.478-0.15zM6.376 7.183l-0.902-0.284 0.415 0.849 0.488-0.565z"></path>
<path d="M5.041 9.242l0.708-0.044 0.207-0.339-0.795 0.050c0.025-0.144 0.012-0.275-0.042-0.395-0.055-0.117-0.145-0.215-0.273-0.293-0.124-0.075-0.25-0.113-0.375-0.109s-0.246 0.043-0.361 0.123c-0.115 0.079-0.217 0.193-0.308 0.341l-0.425 0.698 1.696 1.034 0.192-0.315-0.494-0.301 0.233-0.383c0.018-0.029 0.031-0.051 0.037-0.067zM4.337 8.494c0.101-0.035 0.206-0.021 0.315 0.046s0.169 0.153 0.185 0.259c0.018 0.107-0.017 0.229-0.101 0.367l-0.225 0.368-0.676-0.412 0.225-0.368c0.084-0.138 0.177-0.225 0.278-0.259z"></path>
<path d="M4.605 10.566l0.287 0.116-0.557 1.382-1.842-0.743 0.543-1.345 0.287 0.116-0.405 1.003 0.479 0.193 0.359-0.889 0.282 0.114-0.359 0.889 0.508 0.205 0.419-1.040z"></path>
<path d="M2.070 12.879l-0.088 0.358 1.929 0.476 0.338-1.366-0.303-0.075-0.249 1.008-1.625-0.402z"></path>
<path d="M3.53 14.091l0.308 0.029-0.139 1.483-1.978-0.185 0.135-1.444 0.308 0.029-0.101 1.076 0.514 0.048 0.089-0.955 0.302 0.028-0.089 0.955 0.545 0.051 0.104-1.116z"></path>
<path d="M3.671 17.297c0.079-0.168 0.109-0.349 0.094-0.55-0.012-0.161-0.051-0.309-0.117-0.441-0.066-0.129-0.156-0.236-0.271-0.322l-0.209 0.254c0.166 0.133 0.258 0.303 0.273 0.512 0.010 0.136-0.013 0.26-0.064 0.372s-0.128 0.203-0.228 0.27-0.22 0.107-0.353 0.116c-0.133 0.010-0.257-0.013-0.366-0.065s-0.2-0.131-0.267-0.234-0.104-0.223-0.114-0.359c-0.015-0.209 0.049-0.39 0.194-0.546l-0.241-0.222c-0.101 0.101-0.175 0.22-0.222 0.357s-0.065 0.289-0.053 0.451c0.014 0.201 0.070 0.376 0.169 0.531 0.102 0.155 0.23 0.274 0.393 0.356s0.338 0.115 0.534 0.101c0.195-0.014 0.365-0.072 0.514-0.176 0.149-0.102 0.259-0.238 0.335-0.405z"></path>
<path d="M4.051 18.738c0.047 0.196 0.048 0.38-0.003 0.558-0.048 0.178-0.134 0.33-0.264 0.455-0.13 0.128-0.287 0.212-0.478 0.258s-0.369 0.042-0.543-0.012c-0.174-0.055-0.319-0.151-0.446-0.287-0.123-0.137-0.207-0.3-0.254-0.496-0.038-0.157-0.046-0.31-0.022-0.453s0.077-0.273 0.16-0.389l0.274 0.179c-0.118 0.177-0.151 0.366-0.102 0.571 0.032 0.132 0.088 0.244 0.171 0.335s0.186 0.154 0.302 0.187c0.116 0.033 0.242 0.035 0.372 0.004s0.241-0.090 0.329-0.173 0.148-0.185 0.181-0.303c0.033-0.119 0.034-0.245 0.003-0.377-0.049-0.204-0.168-0.357-0.353-0.461l0.165-0.285c0.127 0.066 0.233 0.157 0.32 0.273 0.087 0.119 0.15 0.259 0.188 0.416z"></path>
<path d="M4.488 21.495l-0.392-0.913 0.344-0.364-0.152-0.355-1.471 1.608 0.143 0.334 2.178 0.037-0.15-0.349-0.5 0.002zM3.228 21.495l0.65-0.687 0.295 0.686-0.945 0.001z"></path>
<path d="M5.049 23.161l0.738-0.030 0.183 0.253-0.569 0.041 0.512 0.708-0.209 0.151-0.512-0.708-0.215 0.526-0.183-0.253 0.255-0.689z"></path>
<path d="M6.863 24.473l-0.727 0.131-0.158 0.717 0.216 0.226 0.141-0.551 0.604 0.632 0.187-0.179-0.604-0.632 0.559-0.118-0.216-0.226z"></path>
<path d="M8.119 25.662l-0.703 0.229-0.058 0.732 0.245 0.194 0.064-0.565 0.685 0.543 0.16-0.203-0.685-0.542 0.537-0.194-0.245-0.194z"></path>
<path d="M21.468 3.726l0.259-0.546 0.977 0.462 0.132-0.28-1.311-0.62-0.85 1.796 0.333 0.158 0.325-0.687 0.867 0.41 0.133-0.282-0.867-0.41z"></path>
<path d="M23.397 3.68l0.307 0.205-0.928 1.393 0.864 0.576-0.173 0.26-1.171-0.78 1.101-1.653z"></path>
<path d="M24.035 6.443c0.058 0.176 0.165 0.332 0.314 0.468s0.313 0.229 0.494 0.271c0.179 0.044 0.353 0.043 0.528-0.009s0.325-0.149 0.457-0.293c0.132-0.144 0.216-0.303 0.252-0.481s0.023-0.353-0.035-0.529c-0.060-0.174-0.167-0.33-0.316-0.466s-0.313-0.229-0.492-0.274c-0.181-0.042-0.355-0.041-0.53 0.011s-0.327 0.151-0.457 0.293-0.214 0.301-0.25 0.479c-0.036 0.178-0.025 0.355 0.035 0.529zM24.893 6.847c-0.118-0.027-0.227-0.084-0.325-0.174s-0.165-0.194-0.202-0.308c-0.037-0.115-0.044-0.233-0.016-0.353 0.027-0.118 0.084-0.227 0.174-0.325s0.194-0.165 0.31-0.205c0.115-0.037 0.235-0.043 0.353-0.016s0.225 0.086 0.323 0.176c0.098 0.090 0.167 0.191 0.204 0.306s0.043 0.235 0.016 0.353c-0.029 0.12-0.086 0.229-0.176 0.327s-0.194 0.165-0.308 0.202c-0.117 0.039-0.235 0.043-0.353 0.016z"></path>
<path d="M28.693 9.096l-2.007 0.593-0.224-0.322 0.927-1.242-1.492 0.429-0.225-0.324 1.255-1.674 0.219 0.315-0.958 1.267 1.533-0.44 0.194 0.28-0.96 1.279 1.537-0.449 0.201 0.289z"></path>
<path d="M28.824 12.608c0.058-0.088 0.087-0.187 0.088-0.304 0.066 0.062 0.139 0.103 0.226 0.122s0.175 0.014 0.269-0.018c0.154-0.051 0.252-0.149 0.301-0.3 0.046-0.15 0.033-0.334-0.041-0.557l-0.293-0.883-1.886 0.625 0.311 0.937c0.080 0.24 0.186 0.408 0.317 0.505s0.275 0.118 0.44 0.064c0.119-0.039 0.208-0.102 0.269-0.191zM28.695 11.281l0.52-0.172 0.164 0.496c0.040 0.121 0.050 0.223 0.029 0.304-0.024 0.080-0.078 0.134-0.164 0.162-0.084 0.028-0.159 0.017-0.223-0.034-0.068-0.052-0.121-0.139-0.161-0.261l-0.164-0.496zM28.473 12.434c-0.181 0.060-0.317-0.044-0.407-0.317l-0.188-0.566 0.544-0.18 0.188 0.566c0.090 0.272 0.043 0.437-0.137 0.497z"></path>
<path d="M28.944 14.046l-0.691 0.115-0.061-0.364 0.686-0.114 1.146-0.982 0.065 0.389-0.859 0.733 1.051 0.421 0.060 0.358-1.396-0.556z"></path>
<path d="M29.409 17.1c0.113-0.129 0.176-0.334 0.187-0.614l0.008-0.19 0.458 0.061-0.035 0.853 0.309 0.013 0.048-1.165-1.076-0.147-0.020 0.479c-0.008 0.196-0.039 0.331-0.094 0.411-0.057 0.077-0.135 0.114-0.237 0.11-0.094-0.004-0.166-0.044-0.217-0.12-0.051-0.079-0.075-0.182-0.069-0.312 0.004-0.111 0.026-0.215 0.067-0.315 0.038-0.104 0.090-0.189 0.153-0.261l-0.28-0.168c-0.075 0.088-0.136 0.196-0.181 0.328-0.048 0.131-0.073 0.267-0.079 0.409-0.007 0.173 0.015 0.319 0.067 0.437s0.125 0.21 0.219 0.273c0.094 0.064 0.201 0.096 0.32 0.101 0.187 0.008 0.337-0.054 0.453-0.183z"></path>
<path d="M28.145 18.28c0.029-0.156 0.095-0.288 0.199-0.396 0.101-0.108 0.234-0.184 0.4-0.225 0.164-0.041 0.349-0.044 0.558-0.004s0.381 0.109 0.521 0.208c0.137 0.098 0.233 0.217 0.291 0.355 0.055 0.137 0.068 0.284 0.038 0.44s-0.095 0.288-0.197 0.399c-0.104 0.107-0.237 0.184-0.4 0.225-0.166 0.041-0.352 0.043-0.561 0.004s-0.381-0.109-0.518-0.207c-0.14-0.099-0.236-0.218-0.291-0.355-0.057-0.141-0.070-0.288-0.040-0.444zM28.46 18.339c-0.026 0.139 0.011 0.262 0.11 0.364s0.265 0.174 0.493 0.217 0.409 0.037 0.539-0.023c0.13-0.059 0.209-0.16 0.235-0.299 0.026-0.137-0.012-0.256-0.111-0.359s-0.264-0.177-0.493-0.22-0.409-0.034-0.539 0.026c-0.13 0.059-0.209 0.157-0.234 0.294z"></path>
<path d="M28.936 19.821c-0.124 0.047-0.212 0.135-0.262 0.268s-0.044 0.26 0.018 0.377c0.062 0.118 0.169 0.204 0.323 0.262s0.291 0.065 0.418 0.019c0.121-0.048 0.21-0.139 0.26-0.271s0.043-0.257-0.019-0.374c-0.062-0.118-0.171-0.205-0.323-0.262s-0.291-0.065-0.415-0.018zM28.88 20.361c-0.041-0.061-0.048-0.13-0.021-0.202 0.026-0.069 0.076-0.114 0.15-0.131 0.072-0.021 0.16-0.012 0.26 0.026s0.172 0.090 0.215 0.154c0.041 0.061 0.049 0.128 0.023 0.197-0.027 0.072-0.078 0.119-0.149 0.138s-0.157 0.007-0.261-0.032c-0.103-0.039-0.176-0.088-0.217-0.149z"></path>
<path d="M29.153 21.842l0.099-0.26-1.378-1.972-0.099 0.26 1.378 1.972z"></path>
<path d="M27.599 20.707c-0.124 0.047-0.212 0.135-0.262 0.268s-0.043 0.257 0.018 0.377c0.062 0.118 0.171 0.205 0.323 0.262s0.291 0.065 0.415 0.018c0.125-0.050 0.213-0.138 0.263-0.27s0.043-0.257-0.019-0.374c-0.062-0.118-0.171-0.205-0.323-0.262s-0.291-0.065-0.415-0.018zM27.546 21.246c-0.043-0.062-0.051-0.129-0.024-0.2s0.077-0.116 0.148-0.135 0.159-0.010 0.262 0.029c0.104 0.039 0.175 0.091 0.216 0.152s0.049 0.128 0.022 0.199c-0.027 0.072-0.077 0.116-0.148 0.135-0.073 0.018-0.161 0.009-0.262-0.029s-0.172-0.090-0.213-0.15z"></path>
<path d="M26.579 23.849l-0.283-0.683 0.174-0.259 0.235 0.52 0.488-0.725 0.214 0.144-0.488 0.725 0.568 0.020-0.174 0.259-0.734-0.002z"></path>
<path d="M25.211 24.507l0.186 0.715 0.727 0.103 0.208-0.232-0.56-0.098 0.583-0.651-0.192-0.172-0.583 0.651-0.16-0.548-0.208 0.233z"></path>
<path d="M24.039 26.416l-0.086-0.734 0.238-0.202 0.084 0.565 0.667-0.565 0.167 0.197-0.667 0.565 0.541 0.174-0.238 0.202-0.706-0.201z"></path>
<path d="M17.999 28.656c-0.126-0.099-0.266-0.139-0.421-0.121-0.163 0.020-0.295 0.090-0.394 0.216-0.102 0.124-0.142 0.266-0.123 0.426s0.093 0.292 0.219 0.391c0.126 0.099 0.268 0.139 0.426 0.12 0.16-0.019 0.289-0.092 0.388-0.218 0.102-0.127 0.142-0.269 0.122-0.429-0.019-0.158-0.092-0.286-0.218-0.385z"></path>
<path d="M15.901 28.624c0.156 0.002 0.289 0.061 0.401 0.176s0.167 0.252 0.165 0.411c-0.002 0.162-0.061 0.297-0.179 0.409-0.115 0.112-0.252 0.167-0.414 0.165-0.159-0.002-0.294-0.061-0.406-0.176s-0.167-0.255-0.165-0.417c0.002-0.162 0.061-0.297 0.179-0.406 0.115-0.112 0.255-0.164 0.419-0.162z"></path>
<path d="M14.599 28.719c-0.096-0.129-0.219-0.204-0.374-0.227-0.163-0.024-0.308 0.009-0.437 0.105-0.131 0.093-0.207 0.219-0.231 0.379s0.012 0.306 0.108 0.435c0.096 0.129 0.222 0.205 0.379 0.228 0.16 0.024 0.303-0.013 0.432-0.108 0.132-0.095 0.208-0.222 0.231-0.382 0.023-0.157-0.013-0.3-0.109-0.429z"></path>
<path stroke-linejoin="round" stroke-linecap="round" stroke-miterlimit="1.5" stroke-width="0.3316" d="M15.963 26.968c6.079 0 11.007-4.928 11.007-11.007s-4.928-11.007-11.007-11.007c-6.079 0-11.007 4.928-11.007 11.007s4.928 11.007 11.007 11.007z"></path>
<path stroke-linejoin="round" stroke-linecap="round" stroke-miterlimit="1.5" stroke-width="0.3316" d="M15.963 31.753c8.72 0 15.789-7.069 15.789-15.789s-7.069-15.789-15.789-15.789c-8.72 0-15.789 7.069-15.789 15.789s7.069 15.789 15.789 15.789z"></path>
<path stroke-linejoin="round" stroke-linecap="round" stroke-miterlimit="4" stroke-width="0.3316" d="M16.135 10.084l1.803 3.674 4.033 0.593-2.918 2.858 0.689 4.038-3.607-1.907-3.607 1.907 0.689-4.038-2.918-2.858 4.033-0.593 1.803-3.674z"></path>
</symbol>
<symbol id="icon-eternity" viewBox="0 0 32 32">
<path d="M24.8 8.828c-1.92 0-3.733 0.747-5.027 2.040l-9.373 8.319c-0.853 0.853-1.987 1.32-3.2 1.32-2.493 0-4.533-2.013-4.533-4.506s2.040-4.506 4.533-4.506c1.213 0 2.347 0.467 3.253 1.373l1.507 1.333 2.040-1.786-1.707-1.48c-0.668-0.67-1.462-1.201-2.336-1.563s-1.811-0.546-2.758-0.544c-3.973 0-7.2 3.226-7.2 7.172s3.227 7.172 7.2 7.172c1.92 0 3.733-0.747 5.027-2.040l9.373-8.319c0.853-0.853 1.987-1.32 3.2-1.32 2.493 0 4.533 2.013 4.533 4.506s-2.040 4.506-4.533 4.506c-1.2 0-2.347-0.467-3.253-1.373l-1.547-1.346-2 1.786 1.707 1.493c0.669 0.667 1.464 1.195 2.338 1.554s1.81 0.542 2.755 0.539c3.973 0 7.2-3.213 7.2-7.159 0-3.999-3.227-7.172-7.2-7.172z"></path>
</symbol>
<symbol id="icon-alien" viewBox="0 0 32 32">
<path d="M13.296 14.288c1.632 2.624 1.392 5.712-0.56 6.96-1.952 1.216-4.864 0.080-6.512-2.544-1.632-2.624-1.376-5.744 0.576-6.96s4.864-0.080 6.496 2.544zM16 25.2c3.2 0 4-1.2 4-1.2s-0.8 3.2-4 3.2c-3.2 0-4-3.152-4-3.2 0 0 0.8 1.2 4 1.2zM25.2 11.744c1.952 1.216 2.208 4.336 0.576 6.96-1.648 2.624-4.56 3.76-6.512 2.544-1.952-1.248-2.192-4.336-0.56-6.96s4.544-3.76 6.496-2.544zM16 28.8c4 0 12.8-8.224 12.8-14.4s-5.744-11.2-12.8-11.2c-7.056 0-12.8 5.024-12.8 11.2s8.8 14.4 12.8 14.4zM16 0c8.8 0 16 6.464 16 14.4 0 6.528-9.088 17.6-16 17.6s-16-11.072-16-17.6c0-7.936 7.2-14.4 16-14.4z"></path>
</symbol>
<symbol id="icon-spoon" viewBox="0 0 32 32">
<path d="M9.251 18.306l4.547-4.898-9.945-10.697c-0.771-0.831-2.105-0.606-2.587 0.467-1.141 2.579-0.723 5.746 1.253 7.893l6.732 7.235zM20.144 15.173c2.458 1.229 5.912 0.363 8.467-2.389 3.069-3.306 3.663-8.048 1.301-10.593-2.346-2.527-6.748-1.904-9.833 1.402-2.555 2.752-3.358 6.473-2.217 9.121l-14.556 15.681c-0.3 0.324-0.469 0.762-0.469 1.22s0.169 0.897 0.469 1.22c0.3 0.324 0.708 0.505 1.133 0.505s0.832-0.182 1.133-0.505l9.945-10.679 9.929 10.697c0.149 0.16 0.325 0.287 0.52 0.374s0.403 0.131 0.613 0.131c0.21 0 0.419-0.045 0.613-0.131s0.371-0.214 0.52-0.374 0.267-0.35 0.347-0.56c0.080-0.209 0.122-0.434 0.122-0.66s-0.041-0.451-0.122-0.66c-0.081-0.209-0.199-0.4-0.347-0.56l-9.929-10.697 2.362-2.544z"></path>
</symbol>
<symbol id="icon-close" viewBox="0 0 32 32">
<path d="M22.926 10.341l-1.371-1.371-5.375 5.375-5.375-5.375-1.371 1.371 5.375 5.375-5.596 5.596 1.371 1.371 5.596-5.596 5.596 5.596 1.371-1.371-5.596-5.596 5.375-5.375z"></path>
</symbol>
<symbol id="icon-burger" viewBox="0 0 32 32">
<path d="M5.333 9.576h21.333v2.141h-21.333v-2.141zM10.667 14.929h16v2.141h-16v-2.141zM17.333 20.283h9.333v2.141h-9.333v-2.141z"></path>
</symbol>
</defs>
</svg>
